<?xml version="1.0" standalone="no"?>
<!DOCTYPE svg PUBLIC "-//W3C//DTD SVG 20010904//EN"
 "http://www.w3.org/TR/2001/REC-SVG-20010904/DTD/svg10.dtd">
<svg version="1.0" xmlns="http://www.w3.org/2000/svg"
 width="298.000000pt" height="279.000000pt" viewBox="0 0 298.000000 279.000000"
 preserveAspectRatio="xMidYMid meet">

<g transform="translate(0.000000,279.000000) scale(0.100000,-0.100000)"
fill="#860e0e" stroke="none">
<path d="M1359 2411 c-342 -108 -504 -479 -346 -794 46 -92 142 -196 218 -236
l47 -25 52 -263 c29 -145 51 -266 48 -268 -7 -7 -246 13 -358 31 -187 29 -390
96 -390 129 0 33 212 103 387 128 l88 13 3 81 3 82 -38 -5 c-371 -52 -586
-146 -608 -268 -35 -183 245 -304 800 -347 83 -6 151 -12 152 -12 0 -1 22
-105 47 -231 25 -126 48 -231 50 -233 5 -5 10 18 62 279 l37 188 27 0 c15 0
85 5 156 10 548 43 829 167 789 350 -28 129 -302 236 -697 273 l-38 3 0 -78
c0 -54 4 -80 13 -82 6 -2 59 -9 116 -16 191 -21 441 -98 441 -135 0 -40 -251
-114 -470 -139 -231 -26 -300 -29 -300 -14 0 7 23 128 51 269 l51 255 47 25
c25 13 76 54 112 90 308 306 170 822 -253 943 -75 21 -225 20 -299 -3z m481
-371 l0 -60 -135 0 -135 0 0 -265 0 -265 -55 0 -55 0 0 265 0 265 -130 0 -130
0 0 60 0 60 320 0 320 0 0 -60z"/>
</g>
</svg>
